<svg xmlns="http://www.w3.org/2000/svg" viewBox="0 0 500 500" role="img" aria-labelledby="pywry-icon-title pywry-icon-desc" preserveAspectRatio="xMidYMid meet">
  <title id="pywry-icon-title">PyWry</title>
  <desc id="pywry-icon-desc">PyWry icon: a blue-and-yellow snake coiled around a lime slice. Theme-independent — the icon contains no text.</desc>

  <g>
    <!-- Yellow tail (behind) -->
    <path d="M257.0,478.5L253.5,478.0L254.5,477.0L252.5,473.0L252.5,468.0L253.5,467.0L252.5,466.0L253.5,465.0L253.5,460.0L255.5,456.0L255.5,453.0L257.5,450.0L257.5,448.0L259.5,444.0L263.5,438.0L272.0,428.5L279.0,423.5L281.0,423.5L283.0,421.5L288.0,419.5L294.0,419.5L295.0,418.5L329.0,418.5L330.0,417.5L335.0,417.5L337.0,415.5L339.0,415.5L350.0,409.5L361.5,399.0L368.5,385.0L369.5,377.0L370.5,376.0L370.5,372.0L371.5,371.0L371.5,366.0L373.5,362.0L373.5,355.0L375.5,350.0L375.5,346.0L377.5,341.0L379.5,330.0L381.5,327.0L382.5,320.0L384.5,317.0L387.5,307.0L391.5,299.0L393.5,297.0L394.5,293.0L397.5,290.0L397.5,288.0L399.5,287.0L399.5,285.0L407.5,271.0L407.5,269.0L409.5,266.0L409.5,264.0L411.5,260.0L411.5,256.0L412.5,255.0L411.5,240.0L405.5,228.0L399.5,220.0L389.5,210.0L389.5,209.0L388.0,208.5L370.5,191.0L370.5,190.0L362.5,181.0L361.5,178.0L355.5,169.0L358.0,167.5L372.0,167.5L373.0,166.5L380.0,166.5L381.0,165.5L393.0,165.5L394.0,164.5L400.0,164.5L401.0,163.5L415.0,163.5L416.0,162.5L420.0,162.5L421.0,161.5L427.0,161.5L428.0,162.5L429.0,161.5L435.0,165.5L441.0,171.5L442.0,171.5L452.5,183.0L458.5,192.0L464.5,204.0L465.5,210.0L467.5,213.0L467.5,216.0L469.5,220.0L470.5,231.0L471.5,232.0L471.5,250.0L470.5,251.0L470.5,257.0L466.5,268.0L466.5,271.0L462.5,279.0L456.5,287.0L447.0,296.5L446.0,296.5L437.0,305.5L435.5,306.0L433.5,310.0L431.5,311.0L428.5,317.0L425.5,320.0L417.5,336.0L416.5,341.0L413.5,345.0L412.5,351.0L409.5,355.0L408.5,361.0L405.5,365.0L406.5,366.0L404.5,369.0L401.5,379.0L399.5,381.0L399.5,384.0L397.5,387.0L397.5,389.0L395.5,391.0L395.5,394.0L393.5,396.0L393.5,399.0L391.5,401.0L391.5,403.0L389.5,405.0L388.5,409.0L385.5,412.0L385.5,414.0L372.0,428.5L362.0,433.5L357.0,433.5L353.0,435.5L342.0,435.5L341.0,436.5L326.0,436.5L325.0,435.5L323.0,436.5L321.0,435.5L284.0,435.5L283.0,436.5L281.0,436.5L277.0,438.5L270.5,444.0L269.5,447.0L264.5,454.0L259.5,464.0L258.5,474.0L256.5,477.0L257.5,478.0L257.0,478.5Z" fill="#FCD604"/>
    <!-- Blue head (on top) -->
    <path d="M43.0,275.5L38.0,275.5L32.5,273.0L26.5,266.0L25.5,262.0L23.5,259.0L23.5,257.0L21.5,254.0L21.5,251.0L18.5,244.0L18.5,241.0L19.5,240.0L19.5,238.0L18.5,237.0L19.5,236.0L19.5,232.0L23.5,225.0L22.5,223.0L24.0,222.5L24.5,222.0L23.5,221.0L25.5,220.0L24.5,218.0L27.5,216.0L27.5,214.0L29.5,213.0L29.5,211.0L31.5,208.0L34.5,206.0L34.5,204.0L37.5,202.0L38.5,198.0L43.5,195.0L44.5,191.0L47.5,189.0L47.5,187.0L50.5,185.0L50.5,183.0L52.5,179.0L52.5,176.0L54.5,175.0L55.5,166.0L57.5,165.0L57.5,163.0L58.5,162.0L58.5,157.0L60.5,153.0L60.5,149.0L61.5,148.0L61.5,146.0L63.5,145.0L62.5,144.0L64.5,143.0L64.5,141.0L66.5,137.0L65.5,135.0L68.5,133.0L67.5,132.0L68.5,130.0L70.5,128.0L71.5,125.0L75.5,121.0L74.5,120.0L77.5,117.0L79.5,112.0L83.5,107.0L84.5,104.0L110.5,68.0L131.0,47.5L142.0,39.5L150.0,35.5L156.0,34.5L157.0,33.5L175.0,33.5L176.0,34.5L180.0,34.5L197.0,41.5L199.0,43.5L207.0,47.5L208.0,49.5L220.0,57.5L228.0,61.5L235.0,62.5L236.0,63.5L249.0,63.5L250.0,62.5L254.0,62.5L255.0,61.5L258.0,61.5L259.0,60.5L264.0,59.5L275.0,53.5L280.0,49.5L285.0,47.5L287.0,45.5L295.0,41.5L302.0,39.5L305.0,37.5L309.0,37.5L314.0,35.5L327.0,35.5L328.0,34.5L329.0,35.5L337.0,35.5L338.0,36.5L345.0,37.5L346.0,38.5L351.0,39.5L354.0,41.5L356.0,41.5L365.0,47.5L368.0,48.5L387.5,66.0L395.5,77.0L401.5,91.0L401.5,95.0L402.5,96.0L402.5,100.0L403.5,101.0L403.5,107.0L404.5,108.0L404.5,112.0L405.5,113.0L405.5,118.0L406.5,119.0L406.5,122.0L407.5,123.0L407.5,126.0L409.5,130.0L409.5,132.0L411.5,135.0L412.5,139.0L414.5,141.0L415.5,145.0L420.5,151.0L422.5,155.0L426.5,159.0L426.0,160.5L422.0,160.5L421.0,161.5L409.0,161.5L408.0,162.5L404.0,162.5L403.0,163.5L387.0,163.5L386.0,164.5L382.0,164.5L381.0,165.5L380.0,164.5L377.0,164.5L376.0,165.5L367.0,165.5L366.0,166.5L365.0,165.5L364.0,166.5L357.0,166.5L355.0,167.5L351.5,160.0L349.5,158.0L349.5,156.0L345.5,149.0L344.5,143.0L343.5,142.0L343.5,121.0L344.5,120.0L344.5,112.0L343.5,111.0L342.5,105.0L340.5,101.0L336.0,95.5L326.0,90.5L320.0,90.5L319.0,91.5L314.0,91.5L313.0,92.5L308.0,93.5L284.0,106.5L282.0,106.5L279.0,108.5L277.0,108.5L270.0,111.5L260.0,112.5L259.0,113.5L240.0,113.5L239.0,112.5L231.0,111.5L230.0,110.5L225.0,109.5L222.0,107.5L220.0,107.5L198.0,96.5L193.0,95.5L190.0,93.5L183.0,92.5L182.0,91.5L177.0,91.5L176.0,90.5L161.0,91.5L150.0,96.5L144.0,100.5L128.5,116.0L113.5,137.0L111.5,142.0L109.5,143.0L110.5,144.0L108.5,146.0L108.5,148.0L105.5,152.0L106.5,153.0L104.5,155.0L104.5,157.0L102.5,160.0L103.5,161.0L100.5,165.0L100.5,168.0L95.5,175.0L96.5,177.0L91.5,186.0L91.5,188.0L89.5,190.0L89.5,192.0L86.5,194.0L86.5,196.0L83.5,198.0L82.5,202.0L81.0,202.5L79.5,205.0L79.5,209.0L78.5,210.0L78.5,227.0L77.5,228.0L77.5,233.0L78.5,235.0L76.5,238.0L76.5,244.0L74.5,245.0L74.5,249.0L73.5,251.0L71.5,252.0L70.5,255.0L67.5,258.0L67.5,259.0L64.0,261.5L60.0,266.5L58.0,266.5L55.0,270.5L49.0,274.5L44.0,274.5L43.0,275.5Z" fill="#0082B9"/>

    <!-- Lime slice -->
    <g transform="translate(246 241)">
      <circle r="60" fill="#6FA15B"/>
      <circle r="56" fill="#87B05E"/>
      <circle r="50" fill="#C8CE8A"/>
      <g fill="#E6E6A6">
        <path d="M0,-4 L44,-10 A48,48 0 0 1 44,10 L0,4 Z"/>
        <path d="M4,0 L10,44 A48,48 0 0 1 -10,44 L-4,0 Z"/>
        <path d="M0,4 L-44,10 A48,48 0 0 1 -44,-10 L0,-4 Z"/>
        <path d="M-4,0 L-10,-44 A48,48 0 0 1 10,-44 L4,0 Z"/>
      </g>
      <circle r="50" fill="none" stroke="#3F6B3A" stroke-width="0.8" opacity="0.5"/>
      <circle r="4.5" fill="#F4F4D4"/>
      <circle r="4.5" fill="none" stroke="#3F6B3A" stroke-width="0.6" opacity="0.5"/>
    </g>
  </g>
</svg>
